<?xml version="1.0" encoding="utf-8"?>
<!-- Generator: Adobe Illustrator 15.1.0, SVG Export Plug-In . SVG Version: 6.00 Build 0)  -->
<!DOCTYPE svg PUBLIC "-//W3C//DTD SVG 1.1//EN" "http://www.w3.org/Graphics/SVG/1.1/DTD/svg11.dtd">
<svg version="1.1" id="Layer_1" xmlns="http://www.w3.org/2000/svg" xmlns:xlink="http://www.w3.org/1999/xlink" x="0px" y="0px"
	 width="1000px" height="200px" viewBox="0 0 1000 200" enable-background="new 0 0 1000 200" xml:space="preserve">
<path fill="#008080" d="M927.664,45.507c0.094,0.086,0.215,0.129,0.361,0.129c0.205,0,0.406-0.071,0.6-0.213
	s0.291-0.295,0.291-0.458c0-0.068-0.018-0.133-0.053-0.193c-0.172-0.267-0.258-0.546-0.258-0.839c0-0.318,0.102-0.579,0.303-0.781
	c0.203-0.202,0.545-0.359,1.027-0.471c0.48-0.112,1.143-0.181,1.986-0.207c-0.043,0.207-0.082,0.394-0.115,0.562
	c-0.035,0.167-0.064,0.316-0.092,0.445c-0.119,0.576-0.24,1.187-0.361,1.833c-0.119,0.646-0.227,1.295-0.322,1.949
	c-0.051,0.387-0.125,0.844-0.219,1.368c-0.086,0.525-0.162,1.026-0.227,1.504s-0.096,0.819-0.096,1.026
	c0,0.224,0.076,0.405,0.232,0.542c0.154,0.138,0.373,0.207,0.658,0.207c0.266,0,0.494-0.066,0.684-0.2
	c0.189-0.133,0.293-0.324,0.309-0.574c0.035-0.473,0.104-1.095,0.207-1.865s0.203-1.448,0.297-2.033
	c0.268-1.601,0.561-3.192,0.879-4.776c0.705,0.009,1.275,0.024,1.709,0.045c0.181,0.009,0.397,0.022,0.637,0.038
	c-0.045,0.058-0.095,0.102-0.139,0.163c-0.129,0.181-0.223,0.342-0.277,0.484c-0.057,0.142-0.084,0.282-0.084,0.419
	c0,0.146,0.045,0.277,0.135,0.394s0.195,0.174,0.316,0.174c0.146,0,0.279-0.082,0.4-0.245c0.379-0.499,0.725-0.863,1.039-1.091
	c0.314-0.228,0.582-0.342,0.807-0.342c0.283,0,0.426,0.193,0.426,0.581c0,0.413-0.039,0.929-0.117,1.549
	c-0.129,0.99-0.305,2.16-0.529,3.511c-0.129,0.731-0.221,1.306-0.277,1.723c-0.055,0.417-0.084,0.759-0.084,1.026
	c0,0.396,0.07,0.665,0.207,0.807c0.139,0.142,0.365,0.213,0.684,0.213c0.336,0,0.562-0.086,0.678-0.258
	c0.117-0.172,0.205-0.478,0.266-0.917c0.283-2.074,0.639-3.719,1.064-4.937c0.426-1.217,0.863-2.065,1.311-2.542
	s0.881-0.716,1.303-0.716c0.25,0,0.438,0.078,0.562,0.232c0.123,0.155,0.186,0.396,0.186,0.723c0,0.603-0.197,1.945-0.594,4.027
	c-0.146,0.774-0.266,1.448-0.361,2.02c-0.094,0.572-0.141,1.035-0.141,1.387c0,0.379,0.066,0.637,0.199,0.774
	c0.133,0.138,0.346,0.207,0.639,0.207c0.336,0,0.578-0.088,0.73-0.265c0.15-0.176,0.256-0.522,0.314-1.039
	c0.25-1.927,0.576-3.493,0.975-4.698c0.4-1.205,0.822-2.067,1.266-2.588c0.443-0.521,0.867-0.781,1.271-0.781
	c0.215,0,0.381,0.076,0.496,0.226c0.117,0.15,0.174,0.376,0.174,0.677c0,0.172-0.012,0.347-0.037,0.523
	c-0.027,0.176-0.061,0.364-0.104,0.562s-0.074,0.335-0.09,0.413l-0.518,2.362c-0.207,0.963-0.309,1.699-0.309,2.207
	c0,0.731,0.205,1.314,0.619,1.749c0.412,0.435,0.984,0.652,1.717,0.652c0.48,0,0.941-0.125,1.381-0.374
	c0.438-0.25,0.881-0.646,1.328-1.188c0.164-0.198,0.246-0.465,0.246-0.8c0-0.181-0.033-0.323-0.098-0.426
	c-0.064-0.104-0.152-0.155-0.264-0.155c-0.129,0-0.246,0.06-0.348,0.181c-0.371,0.438-0.691,0.753-0.963,0.942
	c-0.271,0.189-0.549,0.284-0.832,0.284c-0.301,0-0.535-0.09-0.703-0.271s-0.252-0.452-0.252-0.813c0-0.31,0.043-0.68,0.129-1.11
	l0.787-3.691c0.111-0.542,0.168-1.002,0.168-1.381c0-0.697-0.162-1.239-0.484-1.626s-0.785-0.581-1.387-0.581
	c-0.748,0-1.412,0.258-1.988,0.774s-1.08,1.368-1.51,2.556c0.078-0.421,0.117-0.774,0.117-1.059c0-0.723-0.162-1.282-0.484-1.678
	c-0.322-0.396-0.764-0.594-1.324-0.594c-0.73,0-1.402,0.277-2.012,0.833c-0.611,0.555-1.162,1.534-1.652,2.936
	c0.016-0.077,0.043-0.215,0.076-0.413c0.035-0.198,0.074-0.454,0.117-0.768s0.064-0.587,0.064-0.82c0-0.576-0.127-1.015-0.381-1.316
	c-0.254-0.301-0.617-0.452-1.09-0.452c-0.398,0-0.797,0.1-1.194,0.293c-0.065-0.021-0.124-0.046-0.2-0.061
	c-0.422-0.078-0.914-0.133-1.479-0.168c-0.564-0.034-1.318-0.051-2.266-0.051c-1.531,0-2.785,0.103-3.762,0.31
	s-1.703,0.531-2.182,0.975c-0.477,0.443-0.715,1.03-0.715,1.762c0,0.344,0.055,0.651,0.166,0.923
	C927.35,45.152,927.49,45.36,927.664,45.507z"/>
<path fill="#008080" d="M337.669,146.69c0-2.988-1.33-5.394-3.99-7.217c-2.66-1.823-6.695-2.735-12.104-2.735
	c-3.527,0-6.979,0.403-10.355,1.211c-3.377,0.807-6.321,1.928-8.831,3.362c-1.196,0.688-1.95,1.3-2.264,1.838
	c-0.313,0.538-0.471,1.181-0.471,1.928c0,0.567,0.142,1.038,0.426,1.412c0.284,0.374,0.695,0.56,1.233,0.56
	c0.657,0,1.464-0.283,2.421-0.852c2.091-1.255,4.632-2.293,7.621-3.115c2.988-0.822,6.082-1.233,9.28-1.233
	c3.526,0,6.142,0.501,7.845,1.502c1.704,1.002,2.555,2.369,2.555,4.103c0,1.374-0.493,2.577-1.479,3.608s-2.339,1.831-4.057,2.398
	c-1.719,0.567-3.639,0.882-5.76,0.941c-0.957,0.03-1.614,0.313-1.973,0.852s-0.538,1.24-0.538,2.106
	c0,0.599,0.119,1.031,0.359,1.301c0.239,0.269,0.657,0.419,1.255,0.448c2.63,0.089,4.505,0.582,5.626,1.479
	c1.121,0.896,1.681,2.002,1.681,3.316c0,1.883-0.979,3.43-2.936,4.641c-1.958,1.21-5.029,1.815-9.212,1.815
	c-0.896,0-2.062-0.06-3.497-0.18c0.329-3.615,0.881-7.419,1.659-11.409c0.777-3.989,1.554-7.149,2.331-9.48
	c0.179-0.538,0.269-1.016,0.269-1.435c0-1.016-0.912-1.524-2.735-1.524c-1.016,0-1.838,0.149-2.465,0.448s-1.046,0.822-1.255,1.569
	c-1.195,4.273-2.182,8.704-2.958,13.291c-0.777,4.588-1.3,8.974-1.569,13.157c-0.061,0.926,0.112,1.629,0.515,2.107
	c0.404,0.478,1.144,0.717,2.219,0.717s1.957-0.209,2.645-0.627c0.687-0.419,1.045-1.047,1.076-1.883
	c0.896,0.089,2.092,0.134,3.586,0.134c4.004,0,7.426-0.471,10.266-1.412c2.839-0.941,4.999-2.278,6.478-4.012
	c1.479-1.733,2.219-3.78,2.219-6.142c0-1.494-0.479-2.816-1.435-3.968c-0.957-1.149-2.361-1.979-4.214-2.487
	c3.437-0.808,6.052-2.13,7.845-3.968C336.773,151.42,337.669,149.231,337.669,146.69z"/>
<path fill="#008080" d="M373.487,154.491c-0.986,0-1.726,0.194-2.219,0.582c-0.493,0.389-0.859,1.031-1.098,1.928
	c-0.717,2.66-1.457,4.902-2.219,6.725c-0.762,1.823-1.479,3.183-2.152,4.079s-1.233,1.345-1.681,1.345
	c-0.627,0-0.941-0.567-0.941-1.703c0-0.718,0.09-1.637,0.269-2.757c0.179-1.121,0.388-2.294,0.627-3.52
	c0.179-0.896,0.418-1.897,0.717-3.003c0.329-1.375,0.493-2.182,0.493-2.421c0-0.418-0.127-0.732-0.381-0.941
	c-0.254-0.209-0.71-0.313-1.368-0.313c-1.166,0-2.017,0.194-2.555,0.582c-0.538,0.389-0.957,1.031-1.255,1.928
	c-0.688,2.093-1.181,4.072-1.479,5.94c-0.218,1.361-0.354,2.826-0.414,4.387c-0.857,0.973-1.583,1.73-2.164,2.247
	c-0.822,0.733-1.532,1.099-2.129,1.099c-0.389,0-0.703-0.157-0.941-0.471c-0.24-0.313-0.359-0.754-0.359-1.322
	c0-0.896,0.418-3.257,1.255-7.083c0.747-3.347,1.121-5.395,1.121-6.142c0-0.448-0.134-0.754-0.403-0.919
	c-0.269-0.164-0.748-0.246-1.435-0.246c-0.986,0-1.726,0.194-2.219,0.582c-0.493,0.389-0.859,1.031-1.098,1.928
	c-0.717,2.66-1.457,4.902-2.219,6.725c-0.762,1.823-1.479,3.183-2.152,4.079s-1.233,1.345-1.681,1.345
	c-0.329,0-0.568-0.127-0.717-0.381c-0.15-0.254-0.224-0.694-0.224-1.322c0-1.046,0.298-3.138,0.896-6.276
	c0.179-0.896,0.418-1.897,0.717-3.003c0.329-1.375,0.493-2.182,0.493-2.421c0-0.418-0.127-0.732-0.381-0.941
	c-0.254-0.209-0.71-0.313-1.368-0.313c-1.166,0-2.017,0.194-2.555,0.582c-0.538,0.389-0.957,1.031-1.255,1.928
	c-0.688,2.093-1.181,4.072-1.479,5.94c-0.299,1.867-0.448,3.922-0.448,6.163c0,1.854,0.426,3.4,1.277,4.64
	c0.852,1.241,1.95,1.861,3.295,1.861c1.166,0,2.256-0.546,3.272-1.637c1.016-1.091,1.778-2.652,2.287-4.685
	c0,2.003,0.336,3.557,1.008,4.662c0.672,1.106,1.726,1.659,3.161,1.659c1.883,0,3.564-0.508,5.043-1.524
	c0.684-0.47,1.344-1.007,1.987-1.598c0.183,0.446,0.392,0.874,0.658,1.261c0.852,1.241,1.95,1.861,3.295,1.861
	c1.195,0,2.331-0.561,3.407-1.682c1.076-1.121,1.912-2.757,2.51-4.908c-0.269,2.062-0.508,3.646-0.717,4.751l-0.134,1.031
	c-3.198,2.45-5.671,4.625-7.419,6.522c-1.748,1.897-2.944,3.579-3.586,5.044c-0.643,1.464-0.964,2.898-0.964,4.303
	c0,1.524,0.478,2.758,1.435,3.699c0.956,0.941,2.196,1.412,3.721,1.412c3.228,0,5.812-2.242,7.755-6.725
	c1.942-4.483,3.466-10.565,4.572-18.245c0.119-0.777,0.522-3.272,1.21-7.486c0.777-4.394,1.166-6.948,1.166-7.666
	c0-0.418-0.134-0.717-0.403-0.896S374.174,154.491,373.487,154.491z M363.625,188.829c-0.927,1.733-1.764,2.601-2.51,2.601
	c-0.448,0-0.77-0.165-0.964-0.493c-0.195-0.329-0.292-0.747-0.292-1.255c0-1.196,0.516-2.594,1.546-4.192
	c1.031-1.599,2.697-3.369,4.999-5.312C365.478,184.212,364.551,187.096,363.625,188.829z"/>
<path fill="#008080" d="M462.022,156.015c0-1.046-0.822-1.568-2.466-1.568c-0.807,0-1.479,0.156-2.017,0.471
	c-0.538,0.313-0.972,0.919-1.3,1.815c-1.106,2.988-2.1,5.364-2.981,7.128c-0.882,1.764-2.01,3.84-3.384,6.23
	c-0.03-1.314-0.045-3.466-0.045-6.455v-6.948c0-0.807-0.209-1.382-0.627-1.726c-0.419-0.344-1.047-0.516-1.883-0.516
	c-0.628,0-1.173,0.156-1.636,0.471c-0.464,0.313-0.86,0.919-1.188,1.815c-1.106,2.988-2.078,5.439-2.914,7.352
	c-0.837,1.913-1.749,3.916-2.734,6.007c-0.419-5.498-0.628-9.967-0.628-13.403c0-0.807-0.187-1.382-0.56-1.726
	c-0.374-0.344-0.949-0.516-1.726-0.516c-1.076,0-1.854,0.187-2.331,0.56c-0.479,0.374-0.732,1.069-0.762,2.085v1.569
	c0,1.06,0.028,2.201,0.069,3.38c-1.372,0.308-2.591,0.496-3.654,0.564c-0.239-2.301-1.053-4.236-2.443-5.805
	c-1.39-1.569-3.221-2.354-5.492-2.354c-1.853,0-3.542,0.5-5.065,1.501c-1.524,1.002-2.72,2.392-3.586,4.17
	c-0.867,1.778-1.3,3.803-1.3,6.074c0,0.605,0.058,1.19,0.144,1.765c-0.613,0.672-1.152,1.22-1.601,1.619
	c-0.822,0.733-1.532,1.099-2.129,1.099c-0.867,0-1.3-0.598-1.3-1.793c0-0.837,0.284-2.556,0.852-5.155
	c0.657-3.049,0.986-5.155,0.986-6.321c0-1.942-0.972-2.913-2.914-2.913c-0.986,0-2.07,0.344-3.25,1.03
	c-1.181,0.688-2.383,1.838-3.608,3.452c-1.226,1.614-2.331,3.706-3.317,6.276c0.119-1.315,0.269-2.421,0.448-3.317
	s0.418-1.942,0.717-3.139c0.448-1.673,0.672-2.749,0.672-3.228c0-0.418-0.12-0.701-0.359-0.852
	c-0.239-0.149-0.658-0.224-1.255-0.224c-1.106,0-1.965,0.201-2.578,0.604c-0.613,0.403-1.054,1.039-1.323,1.905
	c-1.106,3.497-1.659,7.188-1.659,11.073c0,2.63,0.231,4.543,0.695,5.737c0.463,1.196,1.262,1.794,2.398,1.794
	c0.926,0,1.606-0.247,2.04-0.74c0.433-0.493,0.813-1.441,1.143-2.847c0.448-1.822,1.038-3.556,1.771-5.2
	c0.732-1.643,1.449-2.966,2.152-3.967c0.702-1.001,1.248-1.502,1.636-1.502c0.329,0,0.493,0.239,0.493,0.717
	c0,0.718-0.195,2.018-0.583,3.9c-0.418,2.151-0.627,3.646-0.627,4.483c0,1.674,0.388,2.951,1.166,3.832
	c0.777,0.882,1.928,1.323,3.452,1.323c1.883,0,3.564-0.508,5.043-1.524c0.829-0.569,1.624-1.236,2.391-1.984
	c0.584,0.868,1.304,1.61,2.181,2.208c1.27,0.867,2.802,1.301,4.595,1.301c2.122,0,4.019-0.755,5.693-2.265
	c1.673-1.509,2.794-3.519,3.362-6.029c1.508-0.063,2.923-0.266,4.255-0.593c0.065,0.945,0.14,1.918,0.227,2.924
	c0.179,2.062,0.62,3.572,1.322,4.528s1.666,1.435,2.892,1.435c1.016,0,1.89-0.254,2.623-0.763c0.732-0.508,1.479-1.441,2.241-2.802
	c0.762-1.359,1.606-3.324,2.533-5.895c0.06,1.554,0.119,2.72,0.18,3.496c0.149,2.123,0.516,3.646,1.098,4.572
	c0.583,0.927,1.472,1.391,2.667,1.391c1.105,0,2.091-0.314,2.958-0.941c0.867-0.628,1.838-1.794,2.914-3.497
	c2.151-3.467,4.438-8.024,6.858-13.673C461.902,156.866,462.022,156.374,462.022,156.015z M422.686,169.688
	c-0.702,0.777-1.532,1.166-2.488,1.166c-0.867,0-1.622-0.434-2.264-1.301c-0.643-0.866-0.964-2.121-0.964-3.766
	c0-2.091,0.396-3.713,1.188-4.863c0.792-1.15,1.785-1.727,2.981-1.727h0.224c-0.09,0.479-0.134,0.957-0.134,1.435
	c0,1.137,0.247,2.213,0.74,3.229c0.493,1.016,1.203,1.838,2.129,2.465C423.858,167.79,423.388,168.911,422.686,169.688z"/>
<path fill="#008080" d="M463.77,167.267c-1.106,0-2.01,0.403-2.712,1.211c-0.703,0.807-1.054,1.957-1.054,3.451
	c0,1.435-0.083,2.735-0.247,3.9c-0.165,1.166-0.411,2.436-0.74,3.811c-0.089,0.358-0.134,0.672-0.134,0.941
	c0,0.657,0.194,1.136,0.583,1.435c0.388,0.298,0.912,0.448,1.569,0.448c0.567,0,1.023-0.18,1.367-0.538
	c0.343-0.358,0.814-1.091,1.412-2.196c0.896-1.645,1.659-3.333,2.286-5.065c0.628-1.733,0.941-3.123,0.941-4.17
	c0-0.985-0.276-1.771-0.829-2.354C465.66,167.559,464.846,167.267,463.77,167.267z"/>
<path fill="#008080" d="M539.618,166.729c-0.448,0-0.852,0.225-1.21,0.673c-1.047,1.345-1.966,2.302-2.758,2.869
	c-0.791,0.568-1.801,0.852-3.025,0.852c-1.703,0-2.914-0.688-3.631-2.062c3.557-0.866,6.074-2.039,7.554-3.519
	s2.219-3.25,2.219-5.312c0-1.763-0.523-3.16-1.569-4.191s-2.436-1.546-4.168-1.546c-1.943,0-3.685,0.522-5.223,1.568
	c-1.54,1.047-2.742,2.459-3.609,4.236c-0.867,1.778-1.3,3.698-1.3,5.761c0,0.667,0.047,1.299,0.129,1.902
	c-1.272,1.316-2.423,2.184-3.446,2.58c0.061-0.538,0.09-0.956,0.09-1.255c0-1.046-0.246-2.01-0.739-2.892
	c-0.493-0.881-1.218-1.95-2.175-3.205c-0.657-0.807-1.143-1.479-1.457-2.018c-0.312-0.538-0.47-1.031-0.47-1.479
	c0-0.746,0.269-1.658,0.807-2.734c0.209-0.388,0.374-0.776,0.493-1.165s0.18-0.673,0.18-0.852c0-0.329-0.165-0.567-0.494-0.718
	c-0.328-0.149-0.911-0.224-1.748-0.224c-1.793,0-2.974,0.657-3.541,1.972c-0.658,1.555-1.33,3.057-2.018,4.506
	s-1.285,2.607-1.793,3.474c-0.789,1.24-1.95,2.811-3.456,4.688c-0.349,0.36-0.676,0.687-0.959,0.938
	c-0.822,0.733-1.532,1.099-2.129,1.099c-0.389,0-0.703-0.157-0.941-0.471c-0.24-0.313-0.359-0.754-0.359-1.322
	c0-0.896,0.418-3.257,1.255-7.083c0.747-3.347,1.121-5.395,1.121-6.142c0-0.448-0.135-0.754-0.403-0.919
	c-0.269-0.164-0.748-0.246-1.435-0.246c-0.986,0-1.726,0.194-2.219,0.582c-0.493,0.389-0.859,1.031-1.098,1.928
	c-0.717,2.66-1.457,4.902-2.219,6.725c-0.762,1.823-1.479,3.183-2.152,4.079s-1.233,1.345-1.681,1.345
	c-0.329,0-0.568-0.127-0.717-0.381c-0.15-0.254-0.224-0.694-0.224-1.322c0-1.046,0.298-3.138,0.896-6.276
	c0.179-0.896,0.418-1.897,0.717-3.003c0.329-1.375,0.493-2.182,0.493-2.421c0-0.418-0.127-0.732-0.381-0.941
	c-0.254-0.209-0.71-0.313-1.368-0.313c-1.166,0-2.017,0.194-2.555,0.582c-0.538,0.389-0.957,1.031-1.255,1.928
	c-0.688,2.093-1.181,4.072-1.479,5.94c-0.299,1.867-0.448,3.922-0.448,6.163c0,1.854,0.426,3.4,1.277,4.64
	c0.852,1.241,1.95,1.861,3.295,1.861c1.166,0,2.256-0.546,3.272-1.637c1.016-1.091,1.778-2.652,2.287-4.685
	c0,2.003,0.336,3.557,1.008,4.662c0.672,1.106,1.726,1.659,3.161,1.659c1.883,0,3.563-0.508,5.043-1.524
	c1.479-1.016,2.861-2.315,4.147-3.9c0.152-0.177,0.28-0.376,0.392-0.592c0.158-0.192,0.328-0.377,0.481-0.573
	c0.912-1.166,1.83-2.63,2.758-4.394c0.418,0.479,0.865,1.039,1.344,1.681c0.479,0.644,0.875,1.308,1.188,1.995
	s0.485,1.42,0.516,2.196c-0.269-0.029-0.665-0.082-1.188-0.156s-0.979-0.112-1.367-0.112c-1.105,0-1.943,0.284-2.51,0.852
	c-0.568,0.568-0.852,1.24-0.852,2.018c0,0.896,0.41,1.703,1.232,2.421c0.821,0.717,2.01,1.075,3.563,1.075
	c1.644,0,3.063-0.508,4.259-1.523c2.002-0.06,3.684-0.426,5.043-1.099c0.807-0.399,1.641-1.031,2.494-1.847
	c0.219,0.316,0.45,0.622,0.711,0.905c1.584,1.719,3.811,2.578,6.68,2.578c1.883,0,3.504-0.359,4.863-1.076
	c1.359-0.718,2.458-1.719,3.295-3.004c0.508-0.776,0.762-1.703,0.762-2.779c0-0.628-0.111-1.12-0.336-1.479
	C540.312,166.908,540.006,166.729,539.618,166.729z M528.322,165.474c0-1.822,0.381-3.377,1.143-4.662
	c0.762-1.284,1.695-1.928,2.802-1.928c0.538,0,0.964,0.173,1.277,0.516c0.313,0.344,0.471,0.8,0.471,1.367
	c0,1.106-0.509,2.078-1.524,2.914c-1.016,0.837-2.406,1.465-4.168,1.883V165.474z"/>
<path fill="#008080" d="M644.829,163.053c0-0.687-0.232-1.262-0.695-1.726c-0.464-0.463-1.023-0.695-1.681-0.695h-0.403
	c0.328-1.583,0.493-2.659,0.493-3.228c0-0.956-0.232-1.681-0.695-2.174c-0.464-0.493-1.128-0.739-1.995-0.739
	c-0.956,0-2.017,0.344-3.183,1.03c-1.165,0.688-2.361,1.838-3.586,3.452c-1.226,1.614-2.331,3.706-3.317,6.276
	c0.119-1.315,0.269-2.421,0.448-3.317s0.418-1.942,0.717-3.139c0.448-1.673,0.673-2.749,0.673-3.228c0-0.418-0.12-0.701-0.358-0.852
	c-0.24-0.149-0.658-0.224-1.256-0.224c-1.105,0-1.965,0.201-2.577,0.604c-0.613,0.403-1.054,1.039-1.322,1.905
	c-1.018,3.218-1.545,6.607-1.626,10.152c-1.015,1.01-2.152,1.863-3.417,2.557c-1.719,0.941-3.25,1.412-4.595,1.412
	c-2.093,0-3.513-0.688-4.259-2.062c3.525-0.866,6.029-2.039,7.509-3.519s2.219-3.25,2.219-5.312c0-1.763-0.523-3.16-1.569-4.191
	s-2.436-1.546-4.169-1.546c-1.942,0-3.684,0.522-5.223,1.568c-1.539,1.047-2.742,2.459-3.608,4.236
	c-0.867,1.778-1.3,3.698-1.3,5.761c0,0.636,0.048,1.237,0.128,1.815c-0.647,0.658-1.246,1.211-1.786,1.637
	c-0.986,0.777-2.122,1.165-3.406,1.165c-1.585,0-2.742-0.628-3.475-1.883s-1.098-3.437-1.098-6.545c0-0.836,0.029-2.002,0.089-3.497
	h5.47c3.377,0,5.064-1.03,5.064-3.093c0-0.567-0.104-0.956-0.312-1.165c-0.211-0.209-0.555-0.314-1.031-0.314h-5.021
	c3.885-3.437,5.828-7.471,5.828-12.104c0-1.674-0.359-3.063-1.076-4.169s-1.703-1.659-2.959-1.659c-1.703,0-3.295,0.808-4.773,2.421
	c-1.479,1.614-2.742,3.781-3.789,6.5c-1.046,2.72-1.822,5.724-2.33,9.011h-2.556c-1.345,0-2.017,0.837-2.017,2.511
	c0,0.717,0.156,1.24,0.471,1.568c0.312,0.33,0.918,0.493,1.814,0.493h1.749c-0.09,1.346-0.135,2.676-0.135,3.99
	c0,0.969,0.044,1.875,0.122,2.734c-0.268,0.097-0.519,0.27-0.749,0.538c-1.375,1.644-2.466,2.832-3.272,3.563
	c-0.807,0.733-1.494,1.099-2.062,1.099c-0.358,0-0.649-0.135-0.873-0.403c-0.225-0.27-0.337-0.628-0.337-1.076
	c0-1.345,0.343-3.735,1.031-7.173c0.448-2.36,0.673-3.854,0.673-4.482c0-1.046-0.733-1.569-2.197-1.569
	c-0.688,0-1.345,0.061-1.973,0.18c-0.15-0.657-0.336-1.113-0.561-1.367c-0.224-0.254-0.665-0.381-1.322-0.381
	c-2.062,0-4.012,0.649-5.85,1.95c-1.838,1.3-3.311,3.019-4.416,5.155s-1.658,4.4-1.658,6.791c0,0.04,0.007,0.074,0.008,0.113
	c-0.495,0.49-0.952,0.906-1.353,1.209c-0.927,0.703-2.003,1.054-3.228,1.054c-0.777,0-1.405-0.262-1.883-0.784
	c-0.479-0.522-0.822-1.397-1.031-2.623c3.377-4.602,6.052-9.249,8.024-13.941c1.972-4.691,2.958-8.815,2.958-12.373
	c0-2.479-0.41-4.385-1.232-5.715s-1.949-1.995-3.385-1.995c-2.54,0-4.729,1.674-6.566,5.021c-1.838,3.348-3.229,7.352-4.17,12.014
	c-0.941,4.663-1.412,8.817-1.412,12.463c0,3.796,0.635,6.889,1.905,9.279c1.271,2.392,3.22,3.587,5.851,3.587
	c1.912,0,3.623-0.508,5.133-1.524c0.537-0.361,1.055-0.772,1.563-1.206c0.151,0.243,0.295,0.492,0.476,0.713
	c1.105,1.345,2.585,2.018,4.438,2.018c2.361,0,4.318-1.256,5.873-3.766c0.418,1.165,1.038,2.084,1.86,2.757
	c0.821,0.672,1.726,1.009,2.712,1.009c1.285,0,2.615-0.523,3.99-1.569c1.374-1.046,2.674-2.331,3.9-3.855
	c0.037-0.043,0.062-0.097,0.098-0.142c1.373,3.702,4.055,5.566,8.061,5.566c1.973,0,3.721-0.508,5.244-1.524
	c0.876-0.583,1.707-1.271,2.503-2.042c0.261,0.355,0.54,0.697,0.858,1.011c1.733,1.703,4.169,2.556,7.308,2.556
	c2.301,0,4.46-0.567,6.478-1.704c0.858-0.483,1.616-0.989,2.31-1.511c0.103,0.549,0.228,1.027,0.38,1.421
	c0.463,1.196,1.262,1.794,2.398,1.794c0.956,0,1.643-0.239,2.062-0.718c0.418-0.478,0.792-1.435,1.121-2.869
	c0.448-1.822,1.031-3.556,1.748-5.2c0.718-1.643,1.435-2.966,2.152-3.967c0.717-1.001,1.284-1.502,1.703-1.502
	c0.149,0,0.276,0.061,0.381,0.18s0.157,0.299,0.157,0.537c0,0.18-0.03,0.509-0.09,0.986c-0.061,0.658-0.09,1.271-0.09,1.838
	c0,1.017,0.292,1.823,0.874,2.421c0.583,0.599,1.293,0.896,2.13,0.896c1.046,0,2.002-0.373,2.869-1.12
	c0.866-0.747,1.538-1.674,2.017-2.779C644.739,163.86,644.829,163.441,644.829,163.053z M598.186,146.893
	c0.494-1.987,1.016-3.542,1.569-4.662c0.553-1.121,1.054-1.682,1.502-1.682c0.657,0,0.986,0.882,0.986,2.646
	c0,1.554-0.441,3.28-1.323,5.178c-0.881,1.897-2.203,3.608-3.967,5.133C597.281,151.084,597.693,148.88,598.186,146.893z
	 M560.732,150.636c0.657-3.676,1.42-6.754,2.287-9.235c0.865-2.479,1.643-3.721,2.33-3.721c0.837,0,1.256,1.137,1.256,3.407
	c0,2.899-0.628,6.104-1.883,9.616c-1.256,3.512-2.944,7.016-5.066,10.512C559.717,157.838,560.075,154.312,560.732,150.636z
	 M578.35,166.818c-0.269,1.285-0.702,2.316-1.3,3.094c-0.599,0.777-1.226,1.165-1.883,1.165s-1.173-0.224-1.546-0.672
	c-0.375-0.448-0.561-1.136-0.561-2.062c0-1.674,0.313-3.257,0.941-4.752c0.627-1.494,1.471-2.696,2.533-3.608
	c1.06-0.911,2.219-1.382,3.474-1.412L578.35,166.818z M611.477,165.474c0-1.822,0.381-3.377,1.144-4.662
	c0.762-1.284,1.695-1.928,2.802-1.928c0.538,0,0.964,0.173,1.277,0.516c0.313,0.344,0.471,0.8,0.471,1.367
	c0,1.106-0.509,2.078-1.524,2.914c-1.016,0.837-2.405,1.465-4.169,1.883V165.474z"/>
<path fill="#008080" d="M649.088,167.267c-1.105,0-2.01,0.403-2.712,1.211c-0.703,0.807-1.054,1.957-1.054,3.451
	c0,1.435-0.083,2.735-0.246,3.9c-0.165,1.166-0.411,2.436-0.74,3.811c-0.09,0.358-0.135,0.672-0.135,0.941
	c0,0.657,0.194,1.136,0.583,1.435c0.389,0.298,0.911,0.448,1.569,0.448c0.567,0,1.023-0.18,1.367-0.538
	c0.343-0.358,0.813-1.091,1.412-2.196c0.896-1.645,1.658-3.333,2.286-5.065c0.628-1.733,0.941-3.123,0.941-4.17
	c0-0.985-0.276-1.771-0.829-2.354C650.978,167.559,650.164,167.267,649.088,167.267z"/>
<path fill="#008080" d="M789.264,133.242c-2.66,0-4.789,2.092-6.388,6.275c-1.6,4.185-2.683,9.101-3.25,14.749
	c-2.182,0.269-4.154,1.054-5.917,2.354c-1.765,1.3-3.154,2.967-4.17,4.998c-0.98,1.963-1.477,4.095-1.51,6.39
	c-0.591,0.649-1.107,1.178-1.537,1.567c-0.807,0.733-1.495,1.099-2.062,1.099c-0.358,0-0.649-0.135-0.874-0.403
	c-0.224-0.27-0.336-0.628-0.336-1.076c0-1.345,0.343-3.735,1.031-7.173c0.448-2.36,0.672-3.854,0.672-4.482
	c0-1.046-0.732-1.569-2.196-1.569c-0.688,0-1.345,0.061-1.973,0.18c-0.149-0.657-0.336-1.113-0.561-1.367
	c-0.224-0.254-0.665-0.381-1.322-0.381c-2.062,0-4.012,0.649-5.85,1.95c-1.838,1.3-3.311,3.019-4.416,5.155
	c-1.057,2.042-1.593,4.204-1.64,6.479c-0.773,0.653-1.606,1.231-2.507,1.725c-1.719,0.941-3.25,1.412-4.595,1.412
	c-2.093,0-3.513-0.688-4.259-2.062c3.525-0.866,6.029-2.039,7.509-3.519s2.219-3.25,2.219-5.312c0-1.763-0.523-3.16-1.569-4.191
	s-2.436-1.546-4.169-1.546c-1.942,0-3.684,0.522-5.223,1.568c-1.539,1.047-2.742,2.459-3.608,4.236
	c-0.534,1.096-0.883,2.251-1.088,3.454c-0.39,0.191-0.744,0.289-1.063,0.289c-0.747,0-1.12-0.522-1.12-1.568
	c0-0.299,0.119-1.046,0.358-2.242c0.269-1.494,0.403-2.436,0.403-2.824c0-1.942-0.972-2.913-2.914-2.913
	c-0.986,0-2.069,0.344-3.25,1.03c-1.181,0.688-2.384,1.838-3.608,3.452c-1.226,1.614-2.331,3.706-3.317,6.276
	c0.119-1.315,0.269-2.421,0.448-3.317s0.418-1.942,0.717-3.139c0.448-1.673,0.673-2.749,0.673-3.228c0-0.418-0.12-0.701-0.358-0.852
	c-0.24-0.149-0.658-0.224-1.256-0.224c-1.105,0-1.965,0.201-2.577,0.604c-0.613,0.403-1.054,1.039-1.322,1.905
	c-1.024,3.237-1.553,6.649-1.629,10.219c-0.94,1.053-1.743,1.848-2.406,2.378c-0.896,0.718-1.838,1.076-2.824,1.076
	c-0.419,0-0.941-0.09-1.568-0.269c0.896-1.226,1.598-2.585,2.106-4.08c0.508-1.494,0.763-3.032,0.763-4.617
	c0-2.181-0.531-3.944-1.592-5.29c-1.062-1.345-2.429-2.017-4.102-2.017c-1.047,0-2.033,0.262-2.959,0.784
	c-0.927,0.523-1.868,1.383-2.824,2.578c-0.03-0.359-0.045-0.912-0.045-1.659c-0.03-0.747-0.187-1.247-0.471-1.502
	c-0.284-0.253-0.739-0.381-1.367-0.381c-1.076,0-1.973,0.254-2.689,0.762c-0.718,0.509-1.062,1.196-1.031,2.062
	c0.06,1.703,0.09,4.737,0.09,9.101c-0.221,0.369-0.43,0.73-0.641,1.095c-1.54,1.727-2.912,2.833-4.11,3.298
	c0.06-0.538,0.09-0.956,0.09-1.255c0-1.046-0.247-2.01-0.739-2.892c-0.493-0.881-1.219-1.95-2.175-3.205
	c-0.657-0.807-1.143-1.479-1.457-2.018c-0.313-0.538-0.471-1.031-0.471-1.479c0-0.746,0.27-1.658,0.808-2.734
	c0.208-0.388,0.373-0.776,0.492-1.165s0.18-0.673,0.18-0.852c0-0.329-0.164-0.567-0.493-0.718c-0.329-0.149-0.912-0.224-1.748-0.224
	c-1.793,0-2.975,0.657-3.542,1.972c-0.657,1.555-1.33,3.057-2.017,4.506c-0.688,1.449-1.285,2.607-1.793,3.474
	c-0.838,1.315-2.078,2.989-3.722,5.021l-0.582,0.717c-0.418,0.509-0.628,1.062-0.628,1.659c0,0.508,0.15,0.934,0.448,1.277
	c0.299,0.344,0.688,0.516,1.166,0.516c0.597,0,1.165-0.27,1.703-0.808c1.076-1.045,2.069-2.151,2.981-3.316
	c0.911-1.166,1.83-2.63,2.757-4.394c0.418,0.479,0.866,1.039,1.345,1.681c0.478,0.644,0.874,1.308,1.188,1.995
	c0.314,0.688,0.485,1.42,0.516,2.196c-0.269-0.029-0.665-0.082-1.188-0.156c-0.523-0.074-0.979-0.112-1.367-0.112
	c-1.106,0-1.943,0.284-2.511,0.852c-0.568,0.568-0.852,1.24-0.852,2.018c0,0.896,0.41,1.703,1.232,2.421
	c0.822,0.717,2.01,1.075,3.564,1.075c1.643,0,3.062-0.508,4.259-1.523c1.009-0.03,1.936-0.139,2.782-0.325
	c-0.659,1.479-1.232,2.912-1.708,4.292c-1.345,3.9-2.018,7.314-2.018,10.243c0,2.062,0.389,3.677,1.166,4.842
	c0.777,1.166,1.973,1.748,3.586,1.748c2.66,0,4.677-1.935,6.052-5.805c1.375-3.871,2.257-8.69,2.646-14.457
	c1.853-0.03,3.631-0.598,5.334-1.704c0.986,1.137,2.271,1.704,3.855,1.704c1.883,0,3.564-0.508,5.043-1.524
	c0.625-0.429,1.229-0.92,1.819-1.45c0.093,0.447,0.203,0.846,0.333,1.181c0.463,1.196,1.262,1.794,2.398,1.794
	c0.926,0,1.605-0.247,2.039-0.74s0.814-1.441,1.144-2.847c0.448-1.822,1.031-3.556,1.748-5.2c0.718-1.643,1.441-2.966,2.174-3.967
	s1.323-1.502,1.771-1.502c0.328,0,0.493,0.239,0.493,0.717c0,0.21-0.03,0.613-0.09,1.211c-0.09,0.448-0.135,0.896-0.135,1.345
	c0,1.375,0.41,2.466,1.233,3.272c0.821,0.807,2.023,1.21,3.608,1.21c0.974,0,1.906-0.189,2.799-0.559
	c0.364,1.807,1.143,3.312,2.355,4.504c1.733,1.703,4.169,2.556,7.308,2.556c2.301,0,4.46-0.567,6.478-1.704
	c0.764-0.43,1.44-0.879,2.072-1.339c0.199,0.363,0.424,0.708,0.685,1.025c1.105,1.345,2.585,2.018,4.438,2.018
	c2.36,0,4.318-1.256,5.872-3.766c0.418,1.165,1.038,2.084,1.86,2.757c0.822,0.672,1.727,1.009,2.712,1.009
	c1.285,0,2.615-0.523,3.99-1.569c0.562-0.427,1.106-0.904,1.643-1.411c0.199,0.329,0.412,0.648,0.665,0.94
	c1.18,1.36,2.682,2.04,4.505,2.04c1.195,0,2.249-0.239,3.161-0.718c0.911-0.478,1.935-1.419,3.07-2.824l0.045,0.18
	c0.418,1.405,0.874,2.361,1.367,2.869s1.203,0.762,2.129,0.762c1.644,0,2.466-0.673,2.466-2.018c0-0.418-0.06-0.821-0.179-1.21
	c-0.628-2.391-1.106-4.812-1.435-7.263c2.659-4.662,4.796-9.189,6.41-13.583c1.614-4.393,2.421-8.232,2.421-11.521
	c0-2.36-0.426-4.124-1.277-5.29C791.617,133.825,790.549,133.242,789.264,133.242z M687.818,186.207
	c-0.538,3.512-1.21,5.268-2.018,5.268c-0.298,0-0.56-0.255-0.784-0.763c-0.224-0.508-0.336-1.24-0.336-2.196
	c0-1.854,0.374-4.14,1.12-6.858c0.747-2.72,1.764-5.574,3.049-8.562C688.699,178.324,688.356,182.695,687.818,186.207z
	 M699.519,166.034c-0.538,1.39-1.263,2.555-2.174,3.496c-0.912,0.941-1.905,1.532-2.981,1.771c0.029-0.747,0.045-1.809,0.045-3.184
	c0-2.539,0.015-4.467,0.045-5.782c1.524-2.271,2.824-3.407,3.9-3.407c0.598,0,1.075,0.231,1.435,0.695
	c0.358,0.463,0.538,1.143,0.538,2.039C700.326,163.188,700.057,164.645,699.519,166.034z M734.888,165.474
	c0-1.822,0.381-3.377,1.144-4.662c0.762-1.284,1.695-1.928,2.802-1.928c0.538,0,0.964,0.173,1.277,0.516
	c0.313,0.344,0.471,0.8,0.471,1.367c0,1.106-0.509,2.078-1.524,2.914c-1.016,0.837-2.405,1.465-4.169,1.883V165.474z
	 M757.84,166.818c-0.269,1.285-0.702,2.316-1.3,3.094s-1.226,1.165-1.883,1.165s-1.173-0.224-1.546-0.672
	c-0.374-0.448-0.561-1.136-0.561-2.062c0-1.674,0.313-3.257,0.941-4.752c0.627-1.494,1.472-2.696,2.532-3.608
	c1.061-0.911,2.22-1.382,3.475-1.412L757.84,166.818z M777.586,170.405c-0.553,0.448-1.128,0.672-1.726,0.672
	c-1.495,0-2.241-1.091-2.241-3.272c0-2.062,0.538-3.944,1.613-5.648c1.076-1.703,2.436-2.794,4.08-3.272
	c-0.03,0.509-0.045,1.226-0.045,2.152c0,2.331,0.148,4.588,0.448,6.769C778.849,169.09,778.139,169.957,777.586,170.405z
	 M784.781,158.705c0.269-5.2,0.784-10.012,1.547-14.436c0.762-4.422,1.575-6.635,2.442-6.635c0.27,0,0.501,0.314,0.695,0.941
	c0.194,0.628,0.291,1.51,0.291,2.646C789.757,145.704,788.099,151.532,784.781,158.705z"/>
<path fill="#008080" d="M858.748,166.729c-0.448,0-0.852,0.225-1.21,0.673c-1.047,1.345-1.966,2.302-2.757,2.869
	c-0.793,0.568-1.801,0.852-3.026,0.852c-1.703,0-2.914-0.688-3.631-2.062c3.556-0.866,6.074-2.039,7.554-3.519
	s2.219-3.25,2.219-5.312c0-1.763-0.523-3.16-1.569-4.191s-2.436-1.546-4.169-1.546c-1.942,0-3.684,0.522-5.223,1.568
	c-1.539,1.047-2.742,2.459-3.608,4.236c-0.867,1.778-1.3,3.698-1.3,5.761c0,0.672,0.047,1.307,0.13,1.915
	c-0.608,0.664-1.142,1.207-1.587,1.604c-0.822,0.733-1.532,1.099-2.129,1.099c-0.867,0-1.301-0.598-1.301-1.793
	c0-0.837,0.284-2.556,0.852-5.155c0.657-3.049,0.986-5.155,0.986-6.321c0-1.942-0.971-2.913-2.913-2.913
	c-0.986,0-2.07,0.344-3.25,1.03c-1.182,0.688-2.376,1.831-3.587,3.43c-1.21,1.6-2.309,3.669-3.295,6.209
	c0-1.644,0.045-3.242,0.135-4.797c3.975-4.333,6.844-8.121,8.607-11.364c1.763-3.242,2.645-6.372,2.645-9.392
	c0-1.883-0.426-3.414-1.277-4.595c-0.853-1.181-1.966-1.771-3.34-1.771c-2.571,0-4.774,1.696-6.612,5.088
	c-1.838,3.393-3.228,7.584-4.169,12.574c-0.941,4.991-1.412,9.788-1.412,14.39l-0.021,1.696c-0.981,1.071-1.857,1.915-2.623,2.519
	c-0.986,0.777-2.122,1.165-3.407,1.165c-1.584,0-2.742-0.628-3.474-1.883c-0.733-1.255-1.099-3.437-1.099-6.545
	c0-0.836,0.029-2.002,0.09-3.497h5.469c3.377,0,5.065-1.03,5.065-3.093c0-0.567-0.104-0.956-0.313-1.165
	c-0.21-0.209-0.554-0.314-1.031-0.314h-5.021c3.885-3.437,5.827-7.471,5.827-12.104c0-1.674-0.358-3.063-1.075-4.169
	c-0.718-1.105-1.704-1.659-2.959-1.659c-1.703,0-3.295,0.808-4.774,2.421c-1.479,1.614-2.742,3.781-3.788,6.5
	c-1.046,2.72-1.823,5.724-2.331,9.011h-2.555c-1.346,0-2.018,0.837-2.018,2.511c0,0.717,0.157,1.24,0.471,1.568
	c0.313,0.33,0.919,0.493,1.815,0.493h1.748c-0.09,1.346-0.134,2.676-0.134,3.99c0,8.577,3.048,12.866,9.145,12.866
	c1.973,0,3.721-0.508,5.245-1.524c0.594-0.396,1.163-0.847,1.72-1.328c0.065,0.832,0.183,1.478,0.364,1.889
	c0.284,0.643,0.874,0.964,1.771,0.964c2.241,0,3.646-1.195,4.214-3.587c0.448-1.822,1.031-3.556,1.749-5.2
	c0.717-1.643,1.434-2.966,2.151-3.967c0.717-1.001,1.27-1.502,1.658-1.502c0.329,0,0.493,0.239,0.493,0.717
	c0,0.718-0.194,2.018-0.582,3.9c-0.419,2.151-0.628,3.646-0.628,4.483c0,1.674,0.388,2.951,1.165,3.832
	c0.777,0.882,1.928,1.323,3.452,1.323c1.853,0,3.504-0.508,4.954-1.524c0.818-0.574,1.624-1.248,2.419-2.004
	c0.227,0.333,0.468,0.653,0.741,0.95c1.584,1.719,3.811,2.578,6.68,2.578c1.883,0,3.503-0.359,4.863-1.076
	c1.359-0.718,2.458-1.719,3.295-3.004c0.508-0.776,0.763-1.703,0.763-2.779c0-0.628-0.112-1.12-0.337-1.479
	C859.443,166.908,859.137,166.729,858.748,166.729z M828.063,146.22c0.612-2.614,1.247-4.691,1.905-6.231
	c0.656-1.538,1.255-2.309,1.793-2.309c0.388,0,0.687,0.255,0.896,0.763c0.209,0.508,0.313,1.24,0.313,2.196
	c0,2.092-0.605,4.424-1.815,6.993c-1.21,2.57-2.742,4.946-4.595,7.128C826.949,151.682,827.45,148.835,828.063,146.22z
	 M811.656,146.893c0.493-1.987,1.016-3.542,1.569-4.662c0.553-1.121,1.053-1.682,1.502-1.682c0.656,0,0.985,0.882,0.985,2.646
	c0,1.554-0.44,3.28-1.322,5.178s-2.204,3.608-3.967,5.133C810.752,151.084,811.163,148.88,811.656,146.893z M847.451,165.474
	c0-1.822,0.381-3.377,1.144-4.662c0.762-1.284,1.695-1.928,2.802-1.928c0.538,0,0.964,0.173,1.277,0.516
	c0.313,0.344,0.471,0.8,0.471,1.367c0,1.106-0.509,2.078-1.524,2.914c-1.016,0.837-2.405,1.465-4.169,1.883V165.474z"/>
<path fill="#008080" d="M954.254,167.267c-0.224-0.358-0.53-0.538-0.919-0.538c-0.448,0-0.852,0.225-1.21,0.673
	c-1.047,1.345-1.966,2.302-2.757,2.869c-0.793,0.568-1.801,0.852-3.026,0.852c-1.703,0-2.914-0.688-3.631-2.062
	c3.556-0.866,6.074-2.039,7.554-3.519s2.219-3.25,2.219-5.312c0-1.763-0.523-3.16-1.569-4.191s-2.436-1.546-4.169-1.546
	c-1.942,0-3.684,0.522-5.223,1.568c-1.539,1.047-2.742,2.459-3.608,4.236c-0.867,1.778-1.3,3.698-1.3,5.761
	c0,0.66,0.046,1.285,0.127,1.885c-0.656,0.694-1.242,1.258-1.741,1.656c-0.896,0.718-1.838,1.076-2.824,1.076
	c-0.419,0-0.941-0.09-1.568-0.269c0.896-1.226,1.598-2.585,2.106-4.08c0.508-1.494,0.763-3.032,0.763-4.617
	c0-2.181-0.531-3.944-1.592-5.29c-1.062-1.345-2.429-2.017-4.102-2.017c-1.047,0-2.033,0.262-2.959,0.784
	c-0.927,0.523-1.868,1.383-2.824,2.578c-0.03-0.359-0.045-0.912-0.045-1.659c-0.03-0.747-0.187-1.247-0.471-1.502
	c-0.284-0.253-0.739-0.381-1.367-0.381c-1.076,0-1.973,0.254-2.689,0.762c-0.718,0.509-1.062,1.196-1.031,2.062
	c0.038,1.1,0.064,2.762,0.078,4.971c-1.411,0.32-2.665,0.519-3.753,0.588c-0.24-2.301-1.054-4.236-2.443-5.805
	c-1.39-1.569-3.221-2.354-5.491-2.354c-1.854,0-3.542,0.5-5.066,1.501c-1.523,1.002-2.72,2.392-3.586,4.17
	c-0.867,1.778-1.3,3.803-1.3,6.074c0,0.605,0.059,1.189,0.145,1.764c-0.614,0.672-1.153,1.221-1.602,1.62
	c-0.822,0.733-1.532,1.099-2.129,1.099c-0.867,0-1.301-0.598-1.301-1.793c0-0.837,0.284-2.556,0.852-5.155
	c0.657-3.049,0.986-5.155,0.986-6.321c0-1.942-0.971-2.913-2.913-2.913c-0.986,0-2.07,0.344-3.25,1.03
	c-1.182,0.688-2.376,1.831-3.587,3.43c-1.21,1.6-2.309,3.669-3.295,6.209c0-1.644,0.045-3.242,0.135-4.797
	c3.975-4.333,6.844-8.121,8.607-11.364c1.763-3.242,2.645-6.372,2.645-9.392c0-1.883-0.426-3.414-1.277-4.595
	c-0.853-1.181-1.966-1.771-3.34-1.771c-2.571,0-4.774,1.696-6.612,5.088c-1.838,3.393-3.228,7.584-4.169,12.574
	c-0.941,4.991-1.412,9.788-1.412,14.39l-0.045,3.587c-0.03,0.568-0.045,1.33-0.045,2.286c0,1.674,0.142,2.832,0.426,3.475
	s0.874,0.964,1.771,0.964c2.241,0,3.646-1.195,4.214-3.587c0.448-1.822,1.031-3.556,1.749-5.2c0.717-1.643,1.434-2.966,2.151-3.967
	c0.717-1.001,1.27-1.502,1.658-1.502c0.329,0,0.493,0.239,0.493,0.717c0,0.718-0.194,2.018-0.582,3.9
	c-0.419,2.151-0.628,3.646-0.628,4.483c0,1.674,0.388,2.951,1.165,3.832c0.777,0.882,1.928,1.323,3.452,1.323
	c1.853,0,3.504-0.508,4.954-1.524c0.828-0.58,1.643-1.265,2.447-2.031c0.59,0.89,1.321,1.646,2.215,2.255
	c1.27,0.867,2.802,1.301,4.595,1.301c2.121,0,4.019-0.755,5.693-2.265c1.673-1.509,2.794-3.519,3.361-6.029
	c1.31-0.055,2.544-0.221,3.72-0.475c-2.602,4.423-4.549,8.491-5.827,12.197c-1.345,3.9-2.018,7.314-2.018,10.243
	c0,2.062,0.389,3.677,1.166,4.842c0.777,1.166,1.973,1.748,3.586,1.748c2.66,0,4.677-1.935,6.052-5.805
	c1.375-3.871,2.257-8.69,2.646-14.457c1.853-0.03,3.631-0.598,5.334-1.704c0.986,1.137,2.271,1.704,3.855,1.704
	c1.883,0,3.564-0.508,5.043-1.524c0.818-0.562,1.604-1.22,2.362-1.955c0.218,0.314,0.448,0.619,0.709,0.901
	c1.584,1.719,3.811,2.578,6.68,2.578c1.883,0,3.503-0.359,4.863-1.076c1.359-0.718,2.458-1.719,3.295-3.004
	c0.508-0.776,0.763-1.703,0.763-2.779C954.591,168.118,954.479,167.626,954.254,167.267z M880.871,146.22
	c0.612-2.614,1.247-4.691,1.905-6.231c0.656-1.538,1.255-2.309,1.793-2.309c0.388,0,0.687,0.255,0.896,0.763
	c0.209,0.508,0.313,1.24,0.313,2.196c0,2.092-0.605,4.424-1.815,6.993c-1.21,2.57-2.742,4.946-4.595,7.128
	C879.757,151.682,880.258,148.835,880.871,146.22z M906.154,169.688c-0.703,0.777-1.532,1.166-2.488,1.166
	c-0.867,0-1.621-0.434-2.264-1.301c-0.644-0.866-0.964-2.121-0.964-3.766c0-2.091,0.396-3.713,1.188-4.863s1.786-1.727,2.981-1.727
	h0.225c-0.09,0.479-0.135,0.957-0.135,1.435c0,1.137,0.246,2.213,0.739,3.229s1.203,1.838,2.13,2.465
	C907.326,167.79,906.855,168.911,906.154,169.688z M915.365,186.207c-0.538,3.512-1.21,5.268-2.018,5.268
	c-0.298,0-0.56-0.255-0.784-0.763c-0.224-0.508-0.336-1.24-0.336-2.196c0-1.854,0.374-4.14,1.12-6.858
	c0.747-2.72,1.764-5.574,3.049-8.562C916.246,178.324,915.903,182.695,915.365,186.207z M927.065,166.034
	c-0.538,1.39-1.263,2.555-2.174,3.496c-0.912,0.941-1.905,1.532-2.981,1.771c0.029-0.747,0.045-1.809,0.045-3.184
	c0-2.539,0.015-4.467,0.045-5.782c1.524-2.271,2.824-3.407,3.9-3.407c0.598,0,1.075,0.231,1.435,0.695
	c0.358,0.463,0.538,1.143,0.538,2.039C927.873,163.188,927.604,164.645,927.065,166.034z M942.038,165.474
	c0-1.822,0.381-3.377,1.144-4.662c0.762-1.284,1.695-1.928,2.802-1.928c0.538,0,0.964,0.173,1.277,0.516
	c0.313,0.344,0.471,0.8,0.471,1.367c0,1.106-0.509,2.078-1.524,2.914c-1.016,0.837-2.405,1.465-4.169,1.883V165.474z"/>
<path fill="#008080" d="M395.68,86.087c0-1.619-0.285-2.956-0.851-4.01c-0.568-1.052-1.378-1.58-2.43-1.58
	c-0.486,0-1.054,0.082-1.701,0.243c-5.267,1.378-9.803,2.187-13.609,2.43c-0.649-6.237-2.855-11.483-6.622-15.735
	c-3.767-4.253-8.73-6.379-14.885-6.379c-5.023,0-9.599,1.357-13.73,4.07c-4.131,2.715-7.372,6.482-9.721,11.301
	c-2.351,4.82-3.524,10.309-3.524,16.465c0,1.672,0.123,3.298,0.365,4.882c-4.542,1.723-8.778,3.076-12.697,4.049
	c-5.388,1.337-10.714,2.005-15.979,2.005c-10.613,0-18.633-2.652-24.059-7.959c-5.428-5.305-8.141-12.819-8.141-22.54
	c0-9.314,1.498-17.355,4.496-24.12c2.996-6.763,6.926-11.887,11.787-15.371c4.86-3.482,9.964-5.225,15.311-5.225
	c7.856,0,11.786,3.687,11.786,11.058c0,1.458-0.243,3.402-0.729,5.833c-0.325,1.944-0.486,3.281-0.486,4.01
	c0,2.026,0.647,3.565,1.944,4.617c1.295,1.054,3.078,1.58,5.347,1.58c3.239,0,5.73-1.498,7.473-4.496
	c1.741-2.996,2.613-6.966,2.613-11.908c0-7.37-2.269-13.305-6.805-17.801c-4.538-4.496-11.179-6.744-19.928-6.744
	c-9.398,0-17.943,2.533-25.639,7.594c-7.697,5.063-13.792,12.212-18.287,21.447c-4.496,9.235-6.744,19.806-6.744,31.714
	c0,8.587,1.902,16.122,5.711,22.601c3.807,6.481,9.274,11.482,16.404,15.007c7.127,3.523,15.511,5.285,25.152,5.285
	c5.59,0,11.483-0.589,17.68-1.762c6.197-1.174,12.17-3.017,17.923-5.528c0.439-0.193,0.854-0.398,1.257-0.608
	c1.355,1.671,2.937,3.134,4.757,4.375c3.442,2.351,7.594,3.523,12.455,3.523c5.751,0,10.894-2.045,15.432-6.136
	c4.536-4.09,7.573-9.539,9.113-16.344c5.832-0.243,11.179-1.215,16.039-2.916C394.504,92.284,395.68,89.976,395.68,86.087z
	 M359.287,102.37c-1.904,2.107-4.152,3.159-6.744,3.159c-2.351,0-4.395-1.174-6.136-3.523c-1.743-2.349-2.612-5.751-2.612-10.207
	c0-5.669,1.073-10.064,3.22-13.184c2.146-3.118,4.84-4.678,8.081-4.678h0.607c-0.243,1.297-0.364,2.594-0.364,3.888
	c0,3.08,0.668,5.996,2.005,8.749c1.336,2.754,3.26,4.982,5.771,6.683C362.465,97.227,361.19,100.265,359.287,102.37z"/>
<path fill="#008080" d="M791.431,77.825h-1.094c0.891-4.292,1.337-7.209,1.337-8.749c0-2.592-0.629-4.557-1.884-5.893
	c-1.257-1.337-3.059-2.005-5.407-2.005c-2.594,0-5.468,0.932-8.627,2.794c-3.159,1.865-6.4,4.982-9.721,9.356
	c-3.323,4.375-6.319,10.045-8.992,17.012c0.323-3.564,0.729-6.562,1.215-8.992c0.486-2.43,1.134-5.265,1.944-8.506
	c1.215-4.536,1.823-7.452,1.823-8.749c0-1.133-0.325-1.902-0.973-2.309c-0.649-0.404-1.782-0.607-3.402-0.607
	c-2.998,0-5.327,0.546-6.986,1.64c-1.661,1.094-2.855,2.816-3.585,5.164c-2.765,8.74-4.237,17.935-4.452,27.57
	c-2.737,2.714-5.807,5.01-9.216,6.878c-4.659,2.552-8.81,3.827-12.455,3.827c-5.671,0-9.52-1.862-11.544-5.589
	c9.558-2.349,16.344-5.529,20.354-9.539c4.01-4.009,6.015-8.809,6.015-14.398c0-4.779-1.418-8.566-4.253-11.361
	c-2.836-2.795-6.604-4.192-11.301-4.192c-5.267,0-9.984,1.418-14.155,4.252c-4.174,2.837-7.434,6.664-9.782,11.483
	c-2.35,4.821-3.523,10.024-3.523,15.614c0,1.814,0.137,3.53,0.378,5.17c-1.663,1.82-3.111,3.285-4.327,4.369
	c-2.229,1.985-4.152,2.977-5.771,2.977c-2.351,0-3.523-1.619-3.523-4.86c0-2.267,0.769-6.926,2.309-13.974
	c1.78-8.263,2.673-13.974,2.673-17.133c0-5.265-2.633-7.898-7.898-7.898c-2.673,0-5.61,0.932-8.81,2.794
	c-3.2,1.865-6.439,4.963-9.721,9.295c-3.28,4.335-6.258,9.945-8.931,16.83c0-4.454,0.121-8.789,0.364-13.002
	c10.772-11.745,18.55-22.012,23.33-30.803c4.779-8.789,7.169-17.273,7.169-25.456c0-5.104-1.154-9.254-3.463-12.455
	c-2.309-3.199-5.327-4.8-9.053-4.8c-6.968,0-12.94,4.599-17.922,13.792c-4.982,9.195-8.749,20.556-11.301,34.083
	c-2.552,13.53-3.828,26.531-3.828,39.005l-0.058,4.604c-2.961,3.145-5.96,5.608-8.994,7.365c-3.848,2.229-7.434,3.342-10.754,3.342
	c-8.182,0-12.271-4.697-12.271-14.096c0-3.402,0.484-6.52,1.457-9.356c0.973-2.834,2.268-5.083,3.889-6.744
	c1.619-1.66,3.361-2.491,5.225-2.491c0.973,0,1.721,0.285,2.248,0.851c0.525,0.568,0.791,1.378,0.791,2.43
	c0,1.054-0.203,2.188-0.609,3.402c-0.08,0.325-0.203,0.851-0.363,1.58c-0.164,0.729-0.244,1.378-0.244,1.944
	c0,1.297,0.467,2.309,1.398,3.038c0.93,0.729,2.166,1.094,3.705,1.094c2.432,0,4.395-1.173,5.895-3.524
	c1.498-2.349,2.248-5.225,2.248-8.627c0-4.131-1.236-7.513-3.707-10.146c-2.473-2.631-5.936-3.949-10.389-3.949
	c-4.537,0-8.871,1.336-13.002,4.01s-7.494,6.482-10.085,11.422c-2.594,4.942-3.889,10.693-3.889,17.254
	c0,1.421,0.107,2.771,0.271,4.085c-1.567,1.706-2.937,3.083-4.098,4.117c-2.229,1.985-4.151,2.977-5.771,2.977
	c-1.054,0-1.904-0.425-2.552-1.275c-0.649-0.851-0.973-2.045-0.973-3.585c0-2.43,1.134-8.828,3.402-19.198
	c2.024-9.072,3.038-14.621,3.038-16.647c0-1.215-0.364-2.045-1.093-2.491c-0.729-0.444-2.026-0.668-3.889-0.668
	c-2.674,0-4.678,0.528-6.016,1.58c-1.336,1.054-2.329,2.794-2.977,5.225c-1.943,7.211-3.949,13.287-6.015,18.227
	c-2.065,4.942-4.01,8.627-5.833,11.058c-1.822,2.43-3.341,3.646-4.557,3.646c-0.892,0-1.539-0.344-1.943-1.033
	c-0.406-0.688-0.607-1.883-0.607-3.584c0-2.835,0.809-8.506,2.43-17.012c0.486-2.43,1.134-5.144,1.944-8.141
	c0.891-3.725,1.337-5.913,1.337-6.562c0-1.134-0.346-1.984-1.033-2.552c-0.689-0.566-1.926-0.851-3.706-0.851
	c-3.159,0-5.468,0.528-6.927,1.58c-1.457,1.054-2.593,2.794-3.401,5.225c-1.572,4.783-2.746,9.336-3.568,13.686
	c-3.677,0.821-6.941,1.321-9.797,1.503c-0.649-6.237-2.855-11.483-6.622-15.735c-3.768-4.253-8.73-6.379-14.885-6.379
	c-5.024,0-9.6,1.357-13.731,4.07c-0.492,0.323-0.969,0.664-1.436,1.017c-0.847-0.545-2.016-0.834-3.544-0.834
	c-5.51,0-10.41-0.365-14.703-1.094c4.049-11.016,6.075-21.183,6.075-30.499c0-6.48-1.519-11.583-4.557-15.311
	c-3.038-3.725-7.15-5.589-12.333-5.589c-4.213,0-8.041,1.094-11.483,3.281c-3.444,2.188-6.157,5.489-8.141,9.903
	c-1.986,4.416-2.977,9.823-2.977,16.222c0,6.4,1.255,12.05,3.767,16.951c2.51,4.902,6.237,8.891,11.179,11.969
	c-4.131,8.83-8.669,16.161-13.609,21.993c-4.942,5.833-9.52,8.749-13.73,8.749c-4.131,0-7.23-3.22-9.295-9.66
	c-2.066-6.44-3.099-15.857-3.099-28.251c0-11.826,1.215-25.031,3.646-39.612c0.161-1.295,0.243-2.187,0.243-2.673
	c0-4.618-2.673-6.926-8.02-6.926c-3.241,0-5.529,0.75-6.865,2.248c-1.336,1.5-2.37,4.355-3.099,8.566
	c-2.026,11.342-3.038,24.141-3.038,38.397c0,16.689,2.065,29.934,6.197,39.734c4.131,9.802,10.408,14.702,18.834,14.702
	c8.181,0,16.343-3.989,24.484-11.969c8.142-7.978,15.086-18.002,20.839-30.074c4.245,0.959,9.017,1.45,14.306,1.482
	c-1.918,4.471-2.886,9.482-2.886,15.044c0,4.537,0.891,8.748,2.673,12.637c1.781,3.889,4.393,7.008,7.837,9.356
	c3.442,2.351,7.594,3.523,12.455,3.523c5.75,0,10.894-2.045,15.432-6.136c4.535-4.09,7.573-9.539,9.113-16.344
	c3.24-0.135,6.326-0.503,9.267-1.089c-0.092,1.933-0.155,3.901-0.155,5.949c0,5.024,1.154,9.216,3.463,12.576
	c2.309,3.363,5.286,5.043,8.932,5.043c3.159,0,6.115-1.477,8.87-4.435c2.753-2.956,4.819-7.188,6.197-12.698
	c0,5.428,0.911,9.641,2.733,12.637c1.823,2.998,4.679,4.496,8.566,4.496c5.104,0,9.66-1.376,13.67-4.131
	c2.168-1.488,4.257-3.211,6.271-5.15c0.643,0.885,1.33,1.742,2.111,2.537c4.414,4.496,10.59,6.744,18.531,6.744
	c4.939,0,10.064-1.275,15.371-3.827c2.452-1.18,4.736-2.599,6.869-4.237c0.168,2.449,0.508,4.276,1.028,5.452
	c0.769,1.743,2.369,2.612,4.799,2.612c6.076,0,9.883-3.239,11.423-9.721c1.215-4.94,2.794-9.639,4.738-14.095
	c1.944-4.454,3.889-8.039,5.833-10.754c1.943-2.713,3.441-4.071,4.495-4.071c0.891,0,1.337,0.649,1.337,1.944
	c0,1.944-0.527,5.468-1.579,10.571c-1.136,5.833-1.701,9.885-1.701,12.151c0,4.538,1.052,8.001,3.159,10.39
	c2.105,2.39,5.225,3.584,9.356,3.584c5.021,0,9.496-1.376,13.427-4.131c2.295-1.608,4.556-3.489,6.782-5.624
	c0.722,0.997,1.501,1.954,2.392,2.829c4.697,4.617,11.3,6.926,19.806,6.926c6.237,0,12.091-1.538,17.559-4.617
	c2.314-1.303,4.394-2.66,6.266-4.064c0.276,1.475,0.612,2.763,1.023,3.821c1.255,3.241,3.421,4.86,6.501,4.86
	c2.592,0,4.454-0.647,5.589-1.944c1.134-1.295,2.146-3.888,3.038-7.776c1.215-4.94,2.795-9.639,4.739-14.095
	c1.943-4.454,3.888-8.039,5.832-10.754c1.944-2.713,3.482-4.071,4.617-4.071c0.404,0,0.748,0.164,1.033,0.486
	c0.283,0.324,0.425,0.811,0.425,1.458c0,0.486-0.081,1.378-0.242,2.673c-0.164,1.783-0.243,3.444-0.243,4.981
	c0,2.755,0.789,4.942,2.369,6.562c1.58,1.622,3.503,2.431,5.771,2.431c2.835,0,5.427-1.012,7.777-3.038
	c2.348-2.023,4.171-4.535,5.468-7.534c0.485-1.215,0.729-2.348,0.729-3.402c0-1.863-0.628-3.421-1.883-4.678
	C794.73,78.453,793.211,77.825,791.431,77.825z M654.915,38.759c1.659-7.087,3.382-12.717,5.164-16.89
	c1.781-4.171,3.402-6.258,4.86-6.258c1.053,0,1.863,0.689,2.431,2.065c0.565,1.378,0.851,3.363,0.851,5.954
	c0,5.671-1.641,11.99-4.921,18.956c-3.281,6.968-7.434,13.408-12.455,19.32C651.896,53.564,653.254,45.849,654.915,38.759z
	 M456.19,58.991c-5.104-3.807-7.655-9.679-7.655-17.619c0-4.697,0.688-8.324,2.066-10.875c1.376-2.552,3.159-3.828,5.346-3.828
	c1.538,0,2.753,0.79,3.646,2.37c0.89,1.58,1.336,4.071,1.336,7.473C460.929,42.426,459.35,49.919,456.19,58.991z M506.797,102.37
	c-1.904,2.107-4.151,3.159-6.743,3.159c-2.351,0-4.395-1.174-6.136-3.523c-1.743-2.349-2.612-5.751-2.612-10.207
	c0-5.669,1.073-10.064,3.22-13.184c2.146-3.118,4.84-4.678,8.081-4.678h0.607c-0.242,1.297-0.364,2.594-0.364,3.888
	c0,3.08,0.668,5.996,2.005,8.749c1.336,2.754,3.26,4.982,5.771,6.683C509.976,97.227,508.7,100.265,506.797,102.37z M707.469,90.948
	c0-4.94,1.032-9.153,3.099-12.637c2.065-3.482,4.596-5.225,7.594-5.225c1.458,0,2.612,0.467,3.463,1.397
	c0.851,0.932,1.276,2.168,1.276,3.706c0,2.998-1.379,5.631-4.132,7.898c-2.755,2.269-6.521,3.97-11.3,5.104V90.948z"/>
<path fill="#008080" d="M806.74,118.773c0.81,0,1.802-0.163,2.978-0.485c1.173-0.325,1.963-0.526,2.369-0.607
	c2.024-0.729,3.563-1.094,4.617-1.094c2.349,0,5.59,0.121,9.721,0.364c4.132,0.243,6.967,0.406,8.506,0.486
	c7.695,0.565,13.488,0.851,17.376,0.851c2.268,0,4.071-0.83,5.407-2.491c1.337-1.659,2.005-3.543,2.005-5.65
	c0-1.701-0.446-3.117-1.336-4.253c-0.893-1.133-2.188-1.701-3.889-1.701l-27.826,0.486c10.126-5.184,17.881-11.137,23.27-17.862
	c5.387-6.723,8.08-13.163,8.08-19.32c0-6.48-2.065-11.543-6.196-15.189c-4.132-3.645-9.843-5.468-17.134-5.468
	c-6.075,0-11.221,1.033-15.432,3.099c-4.213,2.065-7.372,4.799-9.478,8.202c-2.107,3.402-3.159,7.129-3.159,11.179
	c0,2.43,0.627,4.294,1.884,5.589c1.255,1.297,3.017,1.944,5.285,1.944c4.779,0,7.169-2.389,7.169-7.169
	c0-3.482,1.073-6.197,3.221-8.141c2.145-1.944,5-2.916,8.566-2.916c3.077,0,5.325,0.75,6.743,2.248
	c1.417,1.5,2.127,3.827,2.127,6.987c0,3.97-1.479,8.141-4.436,12.515c-2.958,4.375-6.886,8.445-11.786,12.212
	c-4.902,3.767-10.106,6.865-15.614,9.295c-2.594,1.136-4.496,2.411-5.711,3.828c-1.215,1.418-1.822,3.423-1.822,6.015
	c0,2.351,0.425,4.112,1.275,5.285C804.371,118.186,805.444,118.773,806.74,118.773z"/>
<path fill="#008080" d="M895.807,118.409c6.075,0,11.401-1.741,15.979-5.225c4.576-3.482,8.142-8.363,10.693-14.643
	c2.552-6.276,3.827-13.506,3.827-21.689c0-9.639-2.168-17.051-6.501-22.236c-4.334-5.184-10.471-7.777-18.408-7.777
	c-6.076,0-11.403,1.743-15.979,5.225c-4.578,3.484-8.142,8.365-10.693,14.642c-2.552,6.279-3.827,13.509-3.827,21.69
	c0,9.641,2.166,17.053,6.501,22.236C881.73,115.817,887.867,118.409,895.807,118.409z M889.853,67.8
	c2.51-4.9,5.954-7.351,10.328-7.351c3.564,0,6.277,1.479,8.142,4.435c1.862,2.958,2.795,7.229,2.795,12.819
	c0,8.344-1.257,14.946-3.767,19.806c-2.512,4.86-5.954,7.29-10.329,7.29c-3.645,0-6.379-1.458-8.201-4.374
	c-1.823-2.916-2.734-7.169-2.734-12.758C886.086,79.325,887.341,72.703,889.853,67.8z"/>
<g>
	<g transform="matrix(0.5851,0,0,0.5851,52.9877,1.5812)">
		<g>
			<ellipse fill="#008080" cx="111.087" cy="165.447" rx="97.811" ry="93.119"/>
		</g>
	</g>
	<path fill="#FFFFFF" d="M212.235,72.899c-0.118-0.04-0.518-0.146-1.336-0.363c-10.172-2.693-15.662-4.6-16.316-5.667
		c-0.172-0.28-0.35-0.582-0.537-0.896c-1.421-2.402-3.19-5.391-5.93-5.761c-0.906-0.124-2.344,0.026-4.289,0.247
		c-2.275,0.258-5.108,0.579-8.559,0.579c-5.732,0-11.258-0.894-16.891-2.731c-4.613-15.127-3.153-23.722-2.086-30.004
		c1.034-6.089,1.718-10.113-3.367-15.904c-0.65-0.654-1.385-1.332-2.247-2.07l-0.097-0.055c-10.488-3.519-21.455-5.302-32.595-5.302
		c-16.853,0-33.501,4.16-48.145,12.03l-1.037,0.557l1.287-0.006c5.304,0,25.97,2,42.038,5.878
		c11.499,19.358,11.364,22.878,6.367,54.238c-0.714,0.942-13.743,12.015-20.56,16.012c-3.781,1.904-36.297,14.443-57.813,22.741
		c-6.974,2.689-12.905,4.978-16.548,6.396l-0.248,0.097l0.199,0.694l0.272-0.063c8.005-1.872,37.638-9.425,46.423-11.756
		c-3.389,2.061-11.585,6.943-19.567,11.698c-8.024,4.78-16.321,9.724-21.903,13.085l-0.228,0.137l0.259,0.546
		c0.09,0.189,0.178,0.379,0.271,0.567l0.125,0.255l0.259-0.119c16.703-7.665,58.252-27.181,76.495-35.846
		c3.085-1.104,6.209-1.664,9.285-1.664c5.04,0,9.168,1.483,12.184,2.566c0.409,0.146,0.799,0.287,1.172,0.417
		c16.489,11.497,21.011,24.962,22.183,30.184c1.35,13.785-13.594,41.762-22.621,57.209l-0.29,0.497l0.572-0.057
		c7.322-0.737,14.599-2.286,21.628-4.601l0.084-0.044c11.196-8.469,20.656-18.066,28.122-28.534
		c17.486-26.186,12.016-37.54,7.186-41.989c-17.304-14.14-25.387-23.35-25.434-28.986c-0.018-1.997,0.869-3.61,2.961-5.39
		c8.581-3.916,13.646-4.369,16.71-4.369c1.354,0,2.558,0.099,3.621,0.187c3.531,0.293,6.141,0.548,10.459-3.124
		c1.719-0.652,5.987-0.982,12.689-0.982c1.614,0,3.048,0.019,4.073,0.032c0.572,0.008,1.017,0.014,1.296,0.014
		c0.382,0,0.524,0,0.601-0.202l0.107-0.283L212.235,72.899z"/>
</g>
</svg>
